<?xml version="1.0" encoding="UTF-8"?>

<svg xmlns="http://www.w3.org/2000/svg" version="1.1"
	width="297mm"
	height="210mm"
	viewBox="0 0 297 210">
	<!-- Working space 0 0 297 210 -->
	<defs>
		<radialGradient
			id="radialGradient3661"
			gradientUnits="userSpaceOnUse"
			cy="29.149"
			cx="282.65"
			gradientTransform="matrix(.14777 .23089 -.24680 .15795 -26.318 -62.617)"
			r="19.571">
				<stop stop-color="#71b2f8" offset="0"/>
				<stop stop-color="#002795" offset="1"/>
		</radialGradient>
		<radialGradient
			id="radialGradient3817"
			gradientUnits="userSpaceOnUse"
			cy="33.9"
			cx="270.58"
			gradientTransform="matrix(.26631 .065024 -.17931 .73438 -60.668 -36.938)"
			r="19.571">
				<stop stop-color="#ff6d0f" offset="0"/>
				<stop stop-color="#ff1000" offset="1"/>
		</radialGradient>
	</defs>
	<!-- Set display:none to hide FreeCAD Logo -->
	<g
		style="display:inline"
		id="freecad-logo"
		transform="translate(271, 185) scale(1)"
		fill-rule="evenodd"
		stroke-width=".45621">
		<path d="m0.22811 0.22835v13.256h2.9558v-5.1876h2.09v-2.0452h-2.09v-2.2075h5.1486v-3.8087l-8.1044-0.0075z"
			stroke="#370700"
			fill="url(#radialGradient3817)"/>
		<path d="m13.386 4.1792-1.7193 0.98645-0.75925-0.26348-0.72439-1.8513-1.1395 0.05988-0.51976 1.9144-0.72743 0.34835-1.8143-0.79367-0.76632 0.85156 0.98645 1.7193-0.26957 0.75702-1.8513 0.72439 0.065967 1.1417 1.9144 0.51976 0.34835 0.72743-0.79976 1.8121 0.85156 0.76632 1.7193-0.98645 0.76311 0.27179 0.7183 1.8491 1.1478-0.06375 0.51367-1.9166 0.72743-0.34835 1.8182 0.80198 0.76632-0.85156-0.98645-1.7193 0.2657-0.76533 1.8491-0.7183-0.05766-1.1456-1.9166-0.51367-0.34835-0.72743 0.7959-1.8204-0.85156-0.76632zm-2.5751 2.8195 0.35295 0.20478 0.30579 0.27725 0.24481 0.33087 0.17611 0.36787 0.10354 0.39656 0.01715 0.4064-0.0587 0.4063-0.13396 0.38571-0.2131 0.35681-0.26894 0.30192-0.33087 0.24481-0.36787 0.17611-0.39656 0.10354-0.40863 0.02325-0.4063-0.0587-0.38571-0.13396-0.35681-0.2131-0.2997-0.27503-0.24703-0.32478-0.17611-0.36787-0.10132-0.40264-0.02324-0.40863 0.05869-0.4063 0.13396-0.38571 0.21087-0.35072 0.27116-0.30801 0.33087-0.24481 0.36787-0.17611 0.40264-0.10132 0.40641-0.01715 0.4063 0.05869 0.38571 0.13396z" 
		stroke="#000137"
		fill="url(#radialGradient3661)"/>
	</g>
<g id="Ortho_0_0"
   transform="rotate(0,46,60) translate(46,60) scale(1,1)"
  >
<g   stroke="rgb(0, 0, 0)"
   stroke-width="0.35"
   stroke-linecap="butt"
   stroke-linejoin="miter"
   fill="none"
   transform="scale(1,-1)"
  >
<path id= "1" d=" M 0 0 L 205 0 " />
<path id= "2" d=" M 0 -90 L 0 0 " />
<path id= "3" d=" M 205 0 L 205 -90 " />
<path id= "4" d=" M 205 -90 L 0 -90 " />
<circle cx ="113.5" cy ="-6.5" r ="1.5" /><circle cx ="153.5" cy ="-6.5" r ="1.5" /><path d="M130.54 -20 A10.7 10.7 0 1 1 130.54 -10" /><path id= "8" d=" M 130.54 -10 L 129.422 -10 " />
<path d="M129.422 -10 A11.7 11.7 0 0 1 129.422 -20" /><path id= "10" d=" M 130.54 -20 L 129.422 -20 " />
<circle cx ="126.5" cy ="-23.5" r ="1.5" /><path d="M170.54 -20 A10.7 10.7 0 1 1 170.54 -10" /><path id= "13" d=" M 170.54 -10 L 169.422 -10 " />
<path d="M169.422 -10 A11.7 11.7 0 0 1 169.422 -20" /><path id= "15" d=" M 170.54 -20 L 169.422 -20 " />
<circle cx ="166.5" cy ="-23.5" r ="1.5" /><path d="M49.4222 -10 A11.7 11.7 0 0 1 49.4222 -20" /><path id= "18" d=" M 50.5401 -20 L 49.4222 -20 " />
<path d="M50.5401 -20 A10.7 10.7 0 1 1 50.5401 -10" /><path id= "20" d=" M 50.5401 -10 L 49.4222 -10 " />
<circle cx ="73.5" cy ="-6.5" r ="1.5" /><path d="M90.5401 -20 A10.7 10.7 0 1 1 90.5401 -10" /><path id= "23" d=" M 90.5401 -10 L 89.4222 -10 " />
<path d="M89.4222 -10 A11.7 11.7 0 0 1 89.4222 -20" /><path id= "25" d=" M 90.5401 -20 L 89.4222 -20 " />
<circle cx ="86.5" cy ="-23.5" r ="1.5" /><circle cx ="126.5" cy ="-53.5" r ="1.5" /><path d="M130.54 -50 A10.7 10.7 0 1 1 130.54 -40" /><path id= "29" d=" M 130.54 -50 L 129.422 -50 " />
<path id= "30" d=" M 130.54 -40 L 129.422 -40 " />
<path d="M129.422 -40 A11.7 11.7 0 0 1 129.422 -50" /><circle cx ="153.5" cy ="-36.5" r ="1.5" /><path d="M170.54 -50 A10.7 10.7 0 1 1 170.54 -40" /><path id= "34" d=" M 170.54 -50 L 169.422 -50 " />
<path id= "35" d=" M 170.54 -40 L 169.422 -40 " />
<path d="M169.422 -40 A11.7 11.7 0 0 1 169.422 -50" /><circle cx ="166.5" cy ="-53.5" r ="1.5" /><path d="M90.5401 -50 A10.7 10.7 0 1 1 90.5401 -40" /><path id= "39" d=" M 90.5401 -50 L 89.4222 -50 " />
<path id= "40" d=" M 90.5401 -40 L 89.4222 -40 " />
<path d="M89.4222 -40 A11.7 11.7 0 0 1 89.4222 -50" /><circle cx ="113.5" cy ="-36.5" r ="1.5" /><circle cx ="86.5" cy ="-53.5" r ="1.5" /><circle cx ="193.5" cy ="-36.5" r ="1.5" /><circle cx ="193.5" cy ="-6.5" r ="1.5" /><circle cx ="46.5" cy ="-23.5" r ="1.5" /><path id= "47" d=" M 53 -58 L 53 -86 " />
<path id= "48" d=" M 5 -58 L 53 -58 " />
<path id= "49" d=" M 53 -86 L 5 -86 " />
<path id= "50" d=" M 5 -86 L 5 -58 " />
<circle cx ="60" cy ="-15" r ="1" /><circle cx ="100" cy ="-15" r ="1" /><circle cx ="180" cy ="-15" r ="1" /><circle cx ="140" cy ="-15" r ="1" /><circle cx ="29" cy ="-72" r ="1" /></g>
</g>



</svg>

