<?xml version="1.0" encoding="UTF-8"?>

<svg xmlns="http://www.w3.org/2000/svg" version="1.1"
	width="297mm"
	height="210mm"
	viewBox="0 0 297 210">
	<!-- Working space 0 0 297 210 -->
	<defs>
		<radialGradient
			id="radialGradient3661"
			gradientUnits="userSpaceOnUse"
			cy="29.149"
			cx="282.65"
			gradientTransform="matrix(.14777 .23089 -.24680 .15795 -26.318 -62.617)"
			r="19.571">
				<stop stop-color="#71b2f8" offset="0"/>
				<stop stop-color="#002795" offset="1"/>
		</radialGradient>
		<radialGradient
			id="radialGradient3817"
			gradientUnits="userSpaceOnUse"
			cy="33.9"
			cx="270.58"
			gradientTransform="matrix(.26631 .065024 -.17931 .73438 -60.668 -36.938)"
			r="19.571">
				<stop stop-color="#ff6d0f" offset="0"/>
				<stop stop-color="#ff1000" offset="1"/>
		</radialGradient>
	</defs>
	<!-- Set display:none to hide FreeCAD Logo -->
	<g
		style="display:inline"
		id="freecad-logo"
		transform="translate(271, 185) scale(1)"
		fill-rule="evenodd"
		stroke-width=".45621">
		<path d="m0.22811 0.22835v13.256h2.9558v-5.1876h2.09v-2.0452h-2.09v-2.2075h5.1486v-3.8087l-8.1044-0.0075z"
			stroke="#370700"
			fill="url(#radialGradient3817)"/>
		<path d="m13.386 4.1792-1.7193 0.98645-0.75925-0.26348-0.72439-1.8513-1.1395 0.05988-0.51976 1.9144-0.72743 0.34835-1.8143-0.79367-0.76632 0.85156 0.98645 1.7193-0.26957 0.75702-1.8513 0.72439 0.065967 1.1417 1.9144 0.51976 0.34835 0.72743-0.79976 1.8121 0.85156 0.76632 1.7193-0.98645 0.76311 0.27179 0.7183 1.8491 1.1478-0.06375 0.51367-1.9166 0.72743-0.34835 1.8182 0.80198 0.76632-0.85156-0.98645-1.7193 0.2657-0.76533 1.8491-0.7183-0.05766-1.1456-1.9166-0.51367-0.34835-0.72743 0.7959-1.8204-0.85156-0.76632zm-2.5751 2.8195 0.35295 0.20478 0.30579 0.27725 0.24481 0.33087 0.17611 0.36787 0.10354 0.39656 0.01715 0.4064-0.0587 0.4063-0.13396 0.38571-0.2131 0.35681-0.26894 0.30192-0.33087 0.24481-0.36787 0.17611-0.39656 0.10354-0.40863 0.02325-0.4063-0.0587-0.38571-0.13396-0.35681-0.2131-0.2997-0.27503-0.24703-0.32478-0.17611-0.36787-0.10132-0.40264-0.02324-0.40863 0.05869-0.4063 0.13396-0.38571 0.21087-0.35072 0.27116-0.30801 0.33087-0.24481 0.36787-0.17611 0.40264-0.10132 0.40641-0.01715 0.4063 0.05869 0.38571 0.13396z" 
		stroke="#000137"
		fill="url(#radialGradient3661)"/>
	</g>
<g id="Ortho_0_0"
   transform="rotate(90,13.5,155) translate(13.5,155) scale(1,1)"
  >
<g   stroke="rgb(0, 0, 0)"
   stroke-width="0.35"
   stroke-linecap="butt"
   stroke-linejoin="miter"
   fill="none"
   transform="scale(1,-1)"
  >
<path id= "1" d=" M -2.66454e-015 25 L -2.66454e-015 45 " />
<path id= "2" d=" M -6 45 L -2.66454e-015 45 " />
<path id= "3" d=" M -2.66454e-015 25 L -6 25 " />
<path id= "4" d=" M -6 25 L -6 11 " />
<path id= "5" d=" M -6 65 L -6 45 " />
<path id= "6" d=" M -6 11 L -20 11 " />
<path id= "7" d=" M -2.66454e-015 65 L -6 65 " />
<path id= "8" d=" M -20 11 L -20 5 " />
<path id= "9" d=" M -2.66454e-015 65 L -2.66454e-015 85 " />
<path id= "10" d=" M -40 5 L -20 5 " />
<path id= "11" d=" M -6 85 L -2.66454e-015 85 " />
<path id= "12" d=" M -40 5 L -40 11 " />
<path id= "13" d=" M -6 105 L -6 85 " />
<path id= "14" d=" M -40 11 L -60 11 " />
<path id= "15" d=" M -2.66454e-015 105 L -6 105 " />
<path id= "16" d=" M -60 11 L -60 5 " />
<path id= "17" d=" M -2.66454e-015 105 L -2.66454e-015 125 " />
<path id= "18" d=" M -80 5 L -60 5 " />
<path id= "19" d=" M -6 125 L -2.66454e-015 125 " />
<path id= "20" d=" M -80 5 L -80 11 " />
<path id= "21" d=" M -6 145 L -6 125 " />
<path id= "22" d=" M -80 11 L -94 11 " />
<path id= "23" d=" M -2.66454e-015 145 L -6 145 " />
<path id= "24" d=" M -94 11 L -94 25 " />
<path id= "25" d=" M -2.66454e-015 145 L -2.66454e-015 165 " />
<path id= "26" d=" M -94 25 L -100 25 " />
<path id= "27" d=" M -6 165 L -2.66454e-015 165 " />
<path id= "28" d=" M -100 45 L -100 25 " />
<path id= "29" d=" M -6 185 L -6 165 " />
<path id= "30" d=" M -100 45 L -94 45 " />
<path id= "31" d=" M -2.66454e-015 185 L -6 185 " />
<path id= "32" d=" M -94 45 L -94 65 " />
<path id= "33" d=" M -2.66454e-015 185 L -2.66454e-015 205 " />
<path id= "34" d=" M -94 65 L -100 65 " />
<path id= "35" d=" M -6 205 L -2.66454e-015 205 " />
<path id= "36" d=" M -100 85 L -100 65 " />
<path id= "37" d=" M -6 225 L -6 205 " />
<path id= "38" d=" M -100 85 L -94 85 " />
<path id= "39" d=" M -2.66454e-015 225 L -6 225 " />
<path id= "40" d=" M -94 85 L -94 105 " />
<path id= "41" d=" M -2.66454e-015 225 L -2.66454e-015 245 " />
<path id= "42" d=" M -94 105 L -100 105 " />
<path id= "43" d=" M -6 245 L -2.66454e-015 245 " />
<path id= "44" d=" M -100 125 L -100 105 " />
<path id= "45" d=" M -6 259 L -6 245 " />
<path id= "46" d=" M -100 125 L -94 125 " />
<path id= "47" d=" M -20 259 L -6 259 " />
<path id= "48" d=" M -94 125 L -94 145 " />
<path id= "49" d=" M -20 265 L -20 259 " />
<path id= "50" d=" M -94 145 L -100 145 " />
<path id= "51" d=" M -20 265 L -40 265 " />
<path id= "52" d=" M -100 165 L -100 145 " />
<path id= "53" d=" M -40 259 L -40 265 " />
<path id= "54" d=" M -100 165 L -94 165 " />
<path id= "55" d=" M -60 259 L -40 259 " />
<path id= "56" d=" M -94 165 L -94 185 " />
<path id= "57" d=" M -60 265 L -60 259 " />
<path id= "58" d=" M -94 185 L -100 185 " />
<path id= "59" d=" M -60 265 L -80 265 " />
<path id= "60" d=" M -100 205 L -100 185 " />
<path id= "61" d=" M -80 259 L -80 265 " />
<path id= "62" d=" M -100 205 L -94 205 " />
<path id= "63" d=" M -94 259 L -80 259 " />
<path id= "64" d=" M -94 205 L -94 225 " />
<path id= "65" d=" M -94 245 L -94 259 " />
<path id= "66" d=" M -94 225 L -100 225 " />
<path id= "67" d=" M -100 245 L -94 245 " />
<path id= "68" d=" M -100 245 L -100 225 " />
<circle cx ="-83.45" cy ="223.1" r ="1.5" /><path d="M-69.75 199.209 A12 12 0 0 0 -80.25 199.209" /><path id= "71" d=" M -69.75 199.209 L -69.75 200.677 " />
<path id= "72" d=" M -80.25 199.209 L -80.25 200.677 " />
<path d="M-80.25 200.677 A10.7 10.7 0 1 0 -69.75 200.677" /><circle cx ="-66.55" cy ="196.9" r ="1.5" /><circle cx ="-83.45" cy ="173.1" r ="1.5" /><circle cx ="-66.55" cy ="146.9" r ="1.5" /><path d="M-69.75 149.209 A12 12 0 0 0 -80.25 149.209" /><path id= "78" d=" M -69.75 149.209 L -69.75 150.677 " />
<path id= "79" d=" M -80.25 149.209 L -80.25 150.677 " />
<path d="M-80.25 150.677 A10.7 10.7 0 1 0 -69.75 150.677" /><path id= "81" d=" M -80.25 49.2094 L -80.25 50.6765 " />
<path d="M-69.75 49.2094 A12 12 0 0 0 -80.25 49.2094" /><path d="M-80.25 50.6765 A10.7 10.7 0 1 0 -69.75 50.6765" /><path id= "84" d=" M -69.75 49.2094 L -69.75 50.6765 " />
<circle cx ="-66.55" cy ="46.9" r ="1.5" /><circle cx ="-83.45" cy ="73.1" r ="1.5" /><circle cx ="-83.45" cy ="123.1" r ="1.5" /><circle cx ="-66.55" cy ="96.9" r ="1.5" /><path id= "89" d=" M -80.25 99.2094 L -80.25 100.677 " />
<path d="M-69.75 99.2094 A12 12 0 0 0 -80.25 99.2094" /><path d="M-80.25 100.677 A10.7 10.7 0 1 0 -69.75 100.677" /><path id= "92" d=" M -69.75 99.2094 L -69.75 100.677 " />
<circle cx ="-53.45" cy ="223.1" r ="1.5" /><path d="M-39.75 199.209 A12 12 0 0 0 -50.25 199.209" /><path id= "95" d=" M -39.75 199.209 L -39.75 200.677 " />
<path id= "96" d=" M -50.25 199.209 L -50.25 200.677 " />
<path d="M-50.25 200.677 A10.7 10.7 0 1 0 -39.75 200.677" /><path id= "98" d=" M -53 35 L -25 35 " />
<path id= "99" d=" M -53 83 L -53 35 " />
<path id= "100" d=" M -25 83 L -53 83 " />
<path id= "101" d=" M -25 35 L -25 83 " />
<circle cx ="-53.45" cy ="123.1" r ="1.5" /><path d="M-39.75 99.2094 A12 12 0 0 0 -50.25 99.2094" /><path id= "104" d=" M -39.75 99.2094 L -39.75 100.677 " />
<path id= "105" d=" M -50.25 99.2094 L -50.25 100.677 " />
<path d="M-50.25 100.677 A10.7 10.7 0 1 0 -39.75 100.677" /><circle cx ="-36.55" cy ="96.9" r ="1.5" /><circle cx ="-36.55" cy ="196.9" r ="1.5" /><circle cx ="-53.45" cy ="173.1" r ="1.5" /><circle cx ="-36.55" cy ="146.9" r ="1.5" /><path d="M-50.25 150.677 A10.7 10.7 0 1 0 -39.75 150.677" /><path id= "112" d=" M -50.25 149.209 L -50.25 150.677 " />
<path id= "113" d=" M -39.75 149.209 L -39.75 150.677 " />
<path d="M-39.75 149.209 A12 12 0 0 0 -50.25 149.209" /></g>
</g>



</svg>

